<svg width="138" height="176" viewBox="0 0 138 176" fill="none" xmlns="http://www.w3.org/2000/svg">
<path d="M-16.8052 87.3648L0.128784 0.246948H25.4173L22.8226 13.5957H12.3255L8.18301 34.9068H16.8909L14.3471 48.6067H5.52L-2.01381 87.3648H-16.8052ZM40.6301 11.2538L35.6911 36.6632H36.8839C37.9575 36.6632 38.6905 35.9606 38.9408 34.6726L43.1061 13.2444C43.3792 11.8393 43.2544 11.2538 41.9423 11.2538H40.6301ZM33.2784 49.0751L25.8357 87.3648H10.6864L27.6204 0.246948H51.1196C56.3682 0.246948 59.9059 3.52558 58.5175 10.6683L54.5344 31.1598C53.3736 37.1315 50.0555 39.4734 47.3456 40.5273C49.6458 41.5811 52.2692 44.0401 51.3816 48.6067L44.6672 83.1494C44.3257 84.9058 44.3139 86.1939 44.6318 87.0135L44.5635 87.3648H29.6528C29.2157 86.5452 29.0854 85.3742 29.4041 83.7349L35.7543 51.0657C36.0047 49.7777 35.9027 49.0751 34.4713 49.0751H33.2784ZM63.1498 0.246948H88.6769L86.0821 13.5957H75.3464L71.2267 34.7897H80.2924L77.6067 48.6067H68.541L63.6474 73.7819H74.741L72.1007 87.3648H46.2158L63.1498 0.246948ZM91.2238 0.246948H116.751L114.156 13.5957H103.42L99.3008 34.7897H108.366L105.681 48.6067H96.615L91.7214 73.7819H102.815L100.175 87.3648H74.2898L91.2238 0.246948ZM-47.1512 161.705L-50.0645 176.693H-62.8281L-59.9147 161.705H-47.1512ZM8.85802 164.749C10.1702 164.749 10.6136 163.695 10.8867 162.29L15.8258 136.881H30.6172L25.6098 162.642C24.0849 170.487 18.3057 177.513 7.68924 177.513H5.30353C-6.14788 177.513 -9.51992 171.541 -7.51699 161.236L3.49921 104.563C5.27454 95.4297 11.1048 88.7554 22.4369 88.7554H24.9419C35.439 88.7554 38.8794 94.3759 37.2178 102.924L32.734 125.991H17.9426L22.3354 103.392C22.6085 101.987 22.5293 101.167 21.2171 101.167C20.1436 101.167 19.5298 101.87 19.234 103.392L7.78528 162.29C7.46663 163.93 7.78445 164.749 8.85802 164.749ZM47.2444 148.239L51.8964 115.102L43.6658 148.239H47.2444ZM43.2643 176.693L45.4792 161.002H40.3499L36.465 176.693H23.4629L47.7926 89.575H66.8782L57.9364 176.693H43.2643ZM76.8758 177.513H73.4165C63.5158 177.513 59.49 173.063 61.2426 164.047L65.6809 141.213H80.4723L76.2388 162.993C75.9429 164.515 76.2608 165.335 77.3343 165.335C78.4079 165.335 79.1637 164.515 79.4823 162.876L82.7826 145.897C83.3289 143.087 83.1986 141.916 81.3191 139.925L74.8402 133.368C70.5303 129.153 69.3163 124.352 70.5909 117.795L73.5954 102.338C75.1658 94.2588 80.5299 88.7554 91.3849 88.7554H94.8441C105.699 88.7554 108.111 94.1417 106.746 101.167L103.013 120.371H88.4602L92.0564 101.87C92.3067 100.582 91.9434 99.9964 90.8698 99.9964C89.7963 99.9964 89.2053 100.582 88.9549 101.87L86.0643 116.741C85.6091 119.083 85.9269 119.902 87.4941 121.659L93.8538 128.216C98.8621 133.134 100.377 136.998 98.8752 144.726L95.5066 162.056C93.6857 171.424 87.85 177.513 76.8758 177.513ZM111.719 89.575H137.246L134.652 102.924H123.916L119.796 124.118H128.862L126.176 137.935H117.11L112.217 163.11H123.31L120.67 176.693H94.7853L111.719 89.575Z" fill="white"/>
</svg>
