<svg width="392" height="392" viewBox="0 0 392 392" fill="none" xmlns="http://www.w3.org/2000/svg">
<path d="M196 392C304.253 392 392 304.253 392 196C392 87.7467 304.253 0 196 0C87.7467 0 0 87.7467 0 196C0 304.253 87.7467 392 196 392Z" fill="#0098EA"/>
<path d="M262.922 109.392H129.067C104.456 109.392 88.8621 135.937 101.247 157.412L183.849 300.59C189.239 309.936 202.75 309.936 208.14 300.59L290.767 157.399C303.139 135.974 287.533 109.392 262.935 109.392H262.922ZM183.787 257.641L165.792 222.827L122.378 145.186C121.719 144.026 121.377 142.713 121.387 141.379C121.397 140.045 121.759 138.737 122.436 137.588C123.113 136.438 124.082 135.488 125.244 134.833C126.406 134.177 127.72 133.84 129.054 133.855H183.751V257.666L183.775 257.641H183.787ZM269.574 145.174L226.185 222.839L208.189 257.641V133.83H262.91C268.913 133.83 272.441 140.2 269.574 145.174Z" fill="white"/>
</svg>
