<svg width="22" height="22" viewBox="0 0 22 22" fill="none" xmlns="http://www.w3.org/2000/svg">
<g id="Rocket">
<path id="Subtract" fill-rule="evenodd" clip-rule="evenodd" d="M2.07029 19.4103L4.89872 16.5819C5.19162 16.2891 5.66652 16.289 5.95938 16.5819C6.25223 16.8747 6.25214 17.3496 5.95938 17.6425L3.13095 20.4709C2.83806 20.7638 2.36318 20.7638 2.07029 20.4709C1.7774 20.178 1.7774 19.7032 2.07029 19.4103ZM1.36318 15.8747L2.7774 14.4605C3.0703 14.1678 3.5452 14.1677 3.83806 14.4605C4.13091 14.7534 4.13082 15.2283 3.83806 15.5212L2.42384 16.9354C2.13095 17.2283 1.65607 17.2283 1.36318 16.9354C1.07029 16.6425 1.07029 16.1676 1.36318 15.8747ZM7.02004 18.7032C7.31294 18.4104 7.78785 18.4103 8.0807 18.7032C8.37355 18.996 8.37346 19.4709 8.0807 19.7638L6.66648 21.178C6.37359 21.4709 5.89872 21.4709 5.60582 21.178C5.31293 20.8852 5.31293 20.4103 5.60582 20.1174L7.02004 18.7032ZM12.3233 21.178C11.3037 22.1977 9.55748 21.6159 9.35335 20.1885L8.92867 17.2185L8.9342 17.2171C8.66236 17.0859 8.40933 16.9104 8.1898 16.691L5.85027 14.3514C5.6306 14.1317 5.45464 13.8785 5.32339 13.6063L5.3227 13.6126L2.35272 13.1879C0.925323 12.9838 0.34354 11.2375 1.36318 10.2179L4.54516 7.03591C4.93463 6.64654 5.48461 6.46362 6.02981 6.54149L7.96745 6.8177C8.642 5.8711 9.40107 4.95021 10.2227 4.18815C12.8055 1.79287 16.8124 0.94526 19.1714 0.636731L19.3219 0.621539C20.867 0.509162 22.109 1.80642 21.9045 3.36986C21.596 5.7288 20.7484 9.73568 18.3531 12.3185C17.591 13.1402 16.6695 13.8985 15.7228 14.5731L15.9997 16.5114C16.0776 17.0566 15.8947 17.6066 15.5053 17.9961L12.3233 21.178ZM13.2069 9.33395C12.4258 8.5529 12.4258 7.28657 13.2069 6.50552C13.9879 5.72447 15.2543 5.72447 16.0353 6.50552C16.8164 7.28657 16.8164 8.5529 16.0353 9.33395C15.2543 10.115 13.9879 10.115 13.2069 9.33395Z" fill="white"/>
</g>
</svg>
