<svg width="155" height="176" viewBox="0 0 155 176" fill="none" xmlns="http://www.w3.org/2000/svg">
  <defs>
    <linearGradient id="textGradient" x1="0%" y1="0%" x2="100%" y2="100%">
      <stop offset="0%" style="stop-color:#ffffff;stop-opacity:1" />
      <stop offset="50%" style="stop-color:#e0f7ff;stop-opacity:1" />
      <stop offset="100%" style="stop-color:#ffffff;stop-opacity:0.8" />
    </linearGradient>
  </defs>
  
  <!-- FREE text -->
  <text x="15" y="50" font-family="Inter, sans-serif" font-size="28" font-weight="800" fill="url(#textGradient)" transform="rotate(-10)">
    FREE
  </text>
  
  <!-- CASE text -->
  <text x="15" y="90" font-family="Inter, sans-serif" font-size="28" font-weight="800" fill="url(#textGradient)" transform="rotate(-10)">
    CASE
  </text>
  
  <!-- Decorative elements -->
  <circle cx="120" cy="30" r="8" fill="rgba(255,255,255,0.6)" />
  <circle cx="130" cy="60" r="5" fill="rgba(255,255,255,0.4)" />
  <circle cx="125" cy="90" r="6" fill="rgba(255,255,255,0.5)" />
  
  <!-- Sparkle effects -->
  <polygon points="20,20 22,25 27,25 23,28 25,33 20,30 15,33 17,28 13,25 18,25" fill="rgba(255,255,255,0.8)" />
  <polygon points="40,100 42,105 47,105 43,108 45,113 40,110 35,113 37,108 33,105 38,105" fill="rgba(255,255,255,0.6)" />
</svg> 